<?xml version="1.0" standalone="no"?>
<!DOCTYPE svg PUBLIC "-//W3C//DTD SVG 20010904//EN"
 "http://www.w3.org/TR/2001/REC-SVG-20010904/DTD/svg10.dtd">
<svg version="1.0" xmlns="http://www.w3.org/2000/svg"
 width="495.000000pt" height="72.000000pt" viewBox="0 0 495.000000 72.000000"
 preserveAspectRatio="xMidYMid meet">
<metadata>
Created by potrace 1.16, written by Peter Selinger 2001-2019
</metadata>
<g transform="translate(0.000000,72.000000) scale(0.100000,-0.100000)"
fill="#000000" stroke="none">
<path d="M1549 685 c-31 -17 -59 -71 -59 -114 0 -26 -4 -31 -25 -31 -23 0 -25
-3 -25 -50 0 -47 2 -50 25 -50 l25 0 0 -140 0 -140 60 0 c73 0 73 -1 68 163
l-3 117 28 0 c26 0 27 2 27 50 0 46 -2 50 -24 50 -17 0 -25 7 -28 25 -6 31 12
48 44 40 17 -4 32 1 52 20 32 30 31 56 -4 66 -44 12 -134 9 -161 -6z"/>
<path d="M1742 388 c2 -79 8 -151 14 -160 5 -10 25 -29 44 -43 37 -27 104 -34
141 -15 13 7 19 7 19 0 0 -6 25 -10 60 -10 l60 0 0 185 0 185 -60 0 -60 0 0
-117 c0 -65 -4 -123 -8 -129 -14 -20 -45 -25 -68 -9 -23 15 -24 20 -24 135 l0
120 -61 0 -61 0 4 -142z"/>
<path d="M2225 515 c-16 -8 -37 -20 -46 -27 -46 -38 -65 -169 -35 -240 10 -22
33 -49 56 -64 35 -23 47 -26 105 -22 70 4 81 -5 46 -37 -20 -17 -55 -17 -136
0 -35 8 -69 -21 -63 -52 5 -31 84 -63 156 -63 66 0 86 7 129 43 47 40 53 71
53 275 l0 190 -31 6 c-47 9 -79 7 -79 -4 0 -7 -6 -7 -19 0 -28 14 -100 12
-136 -5z m138 -117 c45 -53 -1 -147 -66 -134 -41 8 -67 39 -67 80 0 75 85 110
133 54z"/>
<path d="M2640 517 c-62 -34 -73 -45 -91 -85 -41 -94 -13 -200 64 -245 63 -37
152 -38 214 -2 23 14 43 29 43 34 0 4 -13 20 -30 36 -28 27 -32 28 -68 17 -55
-17 -76 -15 -103 8 l-24 19 124 1 124 0 -7 66 c-8 73 -15 87 -65 130 -28 23
-45 29 -95 32 -39 2 -70 -2 -86 -11z"/>
<path d="M2973 523 c-23 -4 -23 -6 -23 -184 l0 -179 55 0 55 0 0 113 c0 101 2
116 20 132 14 13 29 16 54 12 33 -5 34 -5 40 40 3 25 6 52 6 59 0 17 -62 19
-93 3 -16 -9 -22 -9 -25 0 -4 11 -44 13 -89 4z"/>
<path d="M3278 505 c-20 -14 -40 -34 -43 -46 -13 -39 -7 -100 11 -120 16 -18
73 -42 127 -54 15 -3 25 -10 22 -15 -8 -13 -55 -13 -94 1 -28 10 -35 9 -57
-12 -45 -43 -22 -77 70 -100 54 -13 115 -1 155 32 29 24 40 109 19 149 -13 24
-69 51 -133 66 -30 6 -30 6 -7 17 17 8 33 7 58 -2 33 -12 38 -11 60 10 33 31
30 56 -8 79 -49 30 -133 27 -180 -5z"/>
</g>
</svg>
